<svg width="702" height="459" viewBox="0 0 702 459" fill="none" xmlns="http://www.w3.org/2000/svg">
<g clip-path="url(#clip0)">
<path opacity="0.1" d="M363.077 82.5472C318.743 90.0465 274.47 86.8316 231.881 82.1554C189.292 77.4792 146.808 71.3728 102.455 73.2135C73.9235 74.3949 42.1494 80.0536 22.2277 96.5011C3.05137 112.321 0.0634227 133.668 0.026151 152.939C-0.0235446 167.434 1.23127 182.432 11.4934 193.98C18.6247 201.989 29.6012 207.728 37.8694 215.122C66.6369 240.804 57.8905 281.242 39.0124 315.623C30.1541 331.753 19.3205 347.616 13.2887 364.126C7.25686 380.635 6.45552 398.327 17.2519 411.789C27.9489 425.14 48.6409 432.664 70.215 436.563C114.034 444.485 162.854 439.566 210.089 432.9C314.63 418.095 418.09 395.012 521.327 371.986C559.524 363.46 597.889 354.898 634.689 342.61C655.126 335.77 675.936 327.257 689.136 314.006C705.909 297.216 706.331 274.252 690.168 260.528C663.046 237.52 601.66 242.626 580.682 216.322C569.14 201.84 574.166 182.171 583.353 164.797C603.051 127.537 641.124 90.7243 636.192 53.576C632.788 28.0808 606.816 6.98201 572.004 1.485C535.515 -4.27317 488.652 6.64622 467.643 32.3031C446.044 58.7372 402.225 75.906 363.077 82.5472Z" fill="#049CE4"/>
<path d="M399.695 223.387H223.63V264.198H399.695V223.387Z" fill="#565661"/>
<path opacity="0.1" d="M399.695 223.387H223.63V264.198H399.695V223.387Z" fill="black"/>
<path d="M244.695 265.541L245.931 374.493L228.997 417.287L227.687 265.541H244.695Z" fill="#BCBEC9"/>
<path d="M225.488 231.222L396.906 232.255V262.65H225.488V231.222Z" fill="#565661"/>
<path d="M382.24 265.541L396.906 267.612V415.633L382.24 370.358V265.541Z" fill="#BCBEC9"/>
<path d="M485.091 225.023H402.478V400.753H485.091V225.023Z" fill="#EFEFF0"/>
<path d="M478.482 229.904H409.088V364.985H478.482V229.904Z" fill="#565661"/>
<path opacity="0.1" d="M478.482 229.904H409.088V364.985H478.482V229.904Z" fill="black"/>
<path d="M478.482 232.671H409.088V262.65H478.482V232.671Z" fill="#565661"/>
<path d="M478.482 265.541H409.088V329.217H478.482V265.541Z" fill="#565661"/>
<path d="M478.482 333.147H409.088V396.823H478.482V333.147Z" fill="#565661"/>
<path opacity="0.1" d="M478.482 333.147H409.088V396.823H478.482V333.147Z" fill="black"/>
<path d="M411.983 412.195C414.453 412.195 416.455 409.633 416.455 406.474C416.455 403.314 414.453 400.753 411.983 400.753C409.513 400.753 407.51 403.314 407.51 406.474C407.51 409.633 409.513 412.195 411.983 412.195Z" fill="#565661"/>
<path d="M474.009 412.468C476.479 412.468 478.482 409.907 478.482 406.747C478.482 403.588 476.479 401.026 474.009 401.026C471.539 401.026 469.536 403.588 469.536 406.747C469.536 409.907 471.539 412.468 474.009 412.468Z" fill="#565661"/>
<path d="M223.009 417.287H228.997L227.351 226.546H218.257L223.009 417.287Z" fill="#EFEFF0"/>
<path d="M396.906 225.023V415.633H402.478V226.546L396.906 225.023Z" fill="#EFEFF0"/>
<path d="M227.643 260.784V267.612H396.906V262.65L227.643 260.784Z" fill="#EFEFF0"/>
<path d="M239.117 212.207H453.702L484.886 222.542V228.536L217.226 226.472V220.371L239.117 212.207Z" fill="white"/>
<path d="M217.226 220.371L484.886 222.542V228.536L217.226 226.472V220.371Z" fill="#BCBEC9"/>
<path d="M241.471 291.459L240.229 291.273C240.229 291.217 240.229 291.167 240.229 291.117C240.191 290.825 240.148 290.539 240.104 290.247C240.614 290.651 241.098 291.055 241.545 291.459H241.471Z" fill="url(#paint0_linear)"/>
<path d="M214.474 387.477C215.281 387.29 216.101 387.135 216.921 387.023C222.553 386.22 228.296 387.067 233.458 389.46C232.936 393.303 232.42 397.277 233.526 400.989C234.296 403.601 235.843 405.964 236.172 408.687C237.002 408.83 237.775 409.201 238.406 409.759C239.037 410.317 239.5 411.04 239.744 411.846C239.982 412.56 240.102 413.308 240.098 414.06C240.091 414.991 239.974 415.918 239.75 416.821C239.675 417.543 239.321 418.206 238.764 418.671C238.207 419.135 237.491 419.364 236.768 419.308C231.96 419.856 227.246 417.959 222.773 416.1L214.076 412.481C213.057 412.058 212.032 411.629 211.057 411.106C209.207 410.106 207.565 408.762 206.218 407.145C205.933 406.857 205.733 406.495 205.64 406.101C205.479 405.006 206.759 404.353 207.572 403.613C207.811 403.388 208.019 403.133 208.194 402.855C209.156 401.4 209.25 399.391 209.827 397.675C211.194 393.602 215.418 390.978 216.909 387.004C216.99 386.787 217.064 386.569 217.126 386.345" fill="#A26565"/>
<path opacity="0.1" d="M240.098 414.06C240.091 414.991 239.974 415.918 239.75 416.821C239.675 417.543 239.321 418.206 238.764 418.671C238.207 419.135 237.491 419.364 236.768 419.308C231.96 419.856 227.246 417.959 222.773 416.1L214.076 412.481C213.057 412.058 212.032 411.629 211.057 411.106C209.207 410.106 207.565 408.762 206.218 407.145C205.933 406.857 205.733 406.495 205.64 406.101C205.479 405.006 206.759 404.353 207.572 403.613C207.811 403.388 208.019 403.133 208.193 402.855C210.591 403.371 213.567 404.882 215.399 405.466C217.235 405.967 218.997 406.705 220.642 407.661C222.928 409.129 224.574 411.392 226.513 413.258C228.451 415.123 230.954 416.821 233.656 416.591C235.085 416.375 236.462 415.899 237.719 415.186L240.098 414.06Z" fill="black"/>
<path d="M229.917 325.691C230.078 326.256 230.064 326.856 229.875 327.411C229.686 327.967 229.332 328.452 228.861 328.801C228.047 329.304 226.997 329.236 226.189 329.783C225.189 330.486 225.046 331.879 224.873 333.085C224.251 337.233 222.195 340.995 220.437 344.807C218.679 348.618 217.195 352.778 217.841 356.92C218.282 359.731 219.661 362.728 218.369 365.259C218.052 365.88 217.58 366.434 217.219 367.037C215.449 369.997 216.455 373.747 216.387 377.192C216.413 377.574 216.329 377.956 216.145 378.292C215.873 378.61 215.539 378.868 215.163 379.051C214.533 379.515 214.015 380.116 213.648 380.808C213.281 381.5 213.075 382.266 213.045 383.049C212.993 384.615 213.181 386.18 213.604 387.688C213.673 388.297 213.941 388.866 214.368 389.305C214.863 389.632 215.447 389.797 216.039 389.778C219.942 390.094 223.77 391.026 227.382 392.538C229.737 393.521 232.022 394.752 234.526 395.225C234.768 395.3 235.023 395.325 235.275 395.298C235.527 395.272 235.771 395.194 235.992 395.069C236.307 394.785 236.524 394.409 236.613 393.994C237.576 390.822 238.551 387.551 238.222 384.256C238.079 382.838 237.7 381.451 237.601 380.033C237.166 374.437 240.949 369.388 242.148 363.866C242.688 361.378 242.688 358.804 243.074 356.292C244.117 349.408 247.906 343.233 249.366 336.424C249.569 335.155 249.885 333.906 250.31 332.693C251.398 330.057 253.913 327.918 253.969 325.063C254.004 324.435 253.839 323.813 253.497 323.285C252.912 322.641 252.134 322.205 251.28 322.041C247.905 321.112 244.47 320.418 240.999 319.964C239.408 319.651 237.785 319.539 236.166 319.629C234.064 319.876 232.044 320.59 230.252 321.718C227.854 323.198 229.395 323.552 229.917 325.691Z" fill="#454B69"/>
<path opacity="0.05" d="M229.917 325.691C230.078 326.256 230.064 326.856 229.875 327.411C229.686 327.967 229.332 328.452 228.861 328.801C228.047 329.304 226.997 329.236 226.189 329.783C225.189 330.486 225.046 331.879 224.873 333.085C224.251 337.233 222.195 340.995 220.437 344.807C218.679 348.618 217.195 352.778 217.841 356.92C218.282 359.731 219.661 362.728 218.369 365.259C218.052 365.88 217.58 366.434 217.219 367.037C215.449 369.997 216.455 373.747 216.387 377.192C216.413 377.574 216.329 377.956 216.145 378.292C215.873 378.61 215.539 378.868 215.163 379.051C214.533 379.515 214.015 380.116 213.648 380.808C213.281 381.5 213.075 382.266 213.045 383.049C212.993 384.615 213.181 386.18 213.604 387.688C213.673 388.297 213.941 388.866 214.368 389.305C214.863 389.632 215.447 389.797 216.039 389.778C219.942 390.094 223.77 391.026 227.382 392.538C229.737 393.521 232.022 394.752 234.526 395.225C234.768 395.3 235.023 395.325 235.275 395.298C235.527 395.272 235.771 395.194 235.992 395.069C236.307 394.785 236.524 394.409 236.613 393.994C237.576 390.822 238.551 387.551 238.222 384.256C238.079 382.838 237.7 381.451 237.601 380.033C237.166 374.437 240.949 369.388 242.148 363.866C242.688 361.378 242.688 358.804 243.074 356.292C244.117 349.408 247.906 343.233 249.366 336.424C249.569 335.155 249.885 333.906 250.31 332.693C251.398 330.057 253.913 327.918 253.969 325.063C254.004 324.435 253.839 323.813 253.497 323.285C252.912 322.641 252.134 322.205 251.28 322.041C247.905 321.112 244.47 320.418 240.999 319.964C239.408 319.651 237.785 319.539 236.166 319.629C234.064 319.876 232.044 320.59 230.252 321.718C227.854 323.198 229.395 323.552 229.917 325.691Z" fill="black"/>
<path d="M217.76 419.408H212.461L208.995 348.121L208.753 344.067L213.256 342.481L213.561 346.79L217.76 419.408Z" fill="#565661"/>
<path opacity="0.1" d="M213.561 346.79L208.995 348.121L208.753 344.067L213.256 342.481L213.561 346.79Z" fill="black"/>
<path d="M284.246 434.487L275.506 435.544L235.24 344.067L224.382 343.271L205.311 348.842L201.603 457.756H192.862L196.304 344.863L175.376 345.397L138.03 438.461H130.084L169.363 329.696L170.878 325.505L229.414 323.496L244.005 331.686L244.192 332.158L284.246 434.487Z" fill="#565661"/>
<path opacity="0.1" d="M244.192 332.158C231.613 335.952 218.555 340.093 218.555 340.093C218.555 340.093 206.647 344.253 201.603 340.093C200.967 339.596 200.256 339.204 199.497 338.93C200.151 339.398 200.858 339.788 201.603 340.093L169.363 329.69L170.872 325.505L229.414 323.496L244.005 331.686L244.192 332.158Z" fill="black"/>
<path d="M184.65 314.107L208.485 308.802C208.485 308.802 265.437 319.411 269.673 323.652C269.673 323.652 224.115 332.929 219.083 336.088C214.051 339.247 184.116 342.742 184.65 314.107Z" fill="white"/>
<path d="M174.4 254.479C172.537 260.393 167.449 265.722 161.256 265.977C160.805 266.03 160.349 265.947 159.945 265.74C159.169 265.255 159.15 264.117 159.467 263.253C159.784 262.389 160.337 261.611 160.424 260.704C160.442 260.518 160.43 260.331 160.386 260.15C160.225 259.41 159.622 258.751 158.914 258.906C159.396 258.52 159.717 257.968 159.815 257.358C159.913 256.747 159.78 256.122 159.442 255.605C159.161 255.287 158.907 254.946 158.684 254.585C158.169 253.528 158.97 252.34 159.305 251.208C159.995 248.721 158.243 246.234 158.1 243.64C157.976 241.321 159.15 239.138 159.442 236.838C159.908 233.107 158.057 229.531 157.839 225.806C157.69 223.207 158.33 220.633 159.045 218.127C159.666 215.888 160.368 213.625 160.411 211.287C160.411 209.589 160.119 207.91 160.038 206.219C159.91 204.672 160.19 203.119 160.852 201.717C161.282 200.892 162.015 200.265 162.896 199.969C164.933 199.285 166.269 200.348 166.567 202.282C167.064 205.572 166.778 208.93 167.431 212.232C168.034 215.32 168.947 218.338 170.158 221.242C171.257 223.866 172.593 226.403 173.438 229.121C174.074 231.361 174.529 233.648 174.798 235.961C175.63 242.173 176.283 248.565 174.4 254.479Z" fill="#049CE4"/>
<path d="M315.884 404.988C315.098 406.096 314.087 407.026 312.917 407.716C311.747 408.407 310.444 408.841 309.094 408.992C306.398 409.328 303.597 408.65 300.981 409.39C300.576 409.457 300.194 409.623 299.869 409.874C299.544 410.124 299.286 410.452 299.118 410.827C299.053 411.332 299.014 411.841 299 412.35C298.695 414.01 296.515 414.383 294.819 414.371L287.824 414.327C286.371 414.327 284.762 414.247 283.718 413.239C283.222 412.689 282.942 411.977 282.931 411.236C282.919 410.495 283.177 409.775 283.656 409.21C283.873 408.952 284.139 408.741 284.439 408.588C284.002 408.443 283.614 408.18 283.318 407.828C283.022 407.475 282.829 407.047 282.762 406.592C282.635 405.678 282.679 404.748 282.892 403.85C282.892 401.25 283.513 396.897 285.34 394.864C287.582 392.333 291.471 389.062 294.856 388.385C296 388.165 297.178 388.217 298.298 388.535C299.418 388.854 300.447 389.431 301.304 390.219C302.907 391.711 304.075 394.049 306.274 394.311C307.473 394.46 308.628 393.894 309.815 393.689C311.163 393.515 312.532 393.763 313.735 394.399C314.937 395.034 315.913 396.027 316.53 397.24C316.831 397.854 317.04 398.51 317.151 399.186C317.479 401.211 317.026 403.285 315.884 404.988Z" fill="#A26565"/>
<path opacity="0.1" d="M315.884 404.988C315.098 406.096 314.087 407.026 312.917 407.717C311.747 408.407 310.444 408.841 309.094 408.992C306.398 409.328 303.597 408.65 300.981 409.39C300.576 409.457 300.194 409.623 299.869 409.874C299.544 410.124 299.286 410.452 299.118 410.827C299.053 411.332 299.014 411.841 299 412.35C298.695 414.01 296.515 414.383 294.819 414.371L287.824 414.327C286.371 414.327 284.762 414.247 283.718 413.239C283.222 412.689 282.942 411.977 282.931 411.236C282.92 410.495 283.177 409.775 283.656 409.21C287.694 409.042 291.663 409.21 295.689 408.377C297.323 408.047 298.931 407.612 300.584 407.382C304.162 406.872 307.97 407.307 311.256 405.79C313.995 404.546 315.958 402.015 317.12 399.192C317.456 401.211 317.014 403.282 315.884 404.988Z" fill="black"/>
<path d="M297.428 395.156C294.943 397.084 292.03 398.589 288.899 398.751C285.768 398.912 282.445 397.507 280.911 394.783C278.668 390.785 280.656 385.226 277.91 381.557C277.053 380.406 275.817 379.592 274.91 378.479C274.003 377.366 273.481 375.693 274.289 374.511C273.313 374.885 272.282 373.939 271.996 372.932C271.711 371.925 271.891 370.843 271.717 369.823C271.263 367.118 268.611 365.383 267.337 362.983C266.064 360.582 266.238 357.467 266.095 354.625C265.778 347.702 263.203 341.073 258.765 335.753C257.92 334.745 256.839 333.719 255.522 333.769C255.752 331.493 254.236 329.317 252.274 328.172C250.311 327.028 247.975 326.643 245.701 326.419C222.761 324.155 198.857 332.693 176.954 325.511C170.86 323.515 164.983 320.176 161.256 314.94C159.804 312.947 158.765 310.684 158.201 308.283C157.637 305.882 157.558 303.393 157.97 300.961V300.874C158.833 296.459 161.163 295.371 165.02 293.356C169.474 290.999 174.128 289.045 178.929 287.517C188.247 284.601 198.279 283.55 207.895 285.689C212.387 286.696 216.716 288.363 221.214 289.339C222.984 289.725 224.767 289.998 226.562 290.228C229.351 290.576 232.153 290.807 234.961 291.13C243.939 292.165 252.781 294.155 261.337 297.068C264.523 298.15 267.71 299.388 270.45 301.347C272.617 302.922 274.449 304.913 275.839 307.204C277.23 309.495 278.152 312.04 278.55 314.691C278.811 316.519 278.817 318.422 279.215 320.194C279.591 321.684 280.09 323.14 280.706 324.547C286.013 337.684 290.351 351.194 293.682 364.966C293.871 365.989 294.221 366.976 294.72 367.889C295.515 369.176 296.882 370.041 297.683 371.328C299.546 374.362 297.751 378.597 299.404 381.756C299.975 382.85 300.925 383.715 301.497 384.809C303.361 388.397 300.609 392.688 297.428 395.156Z" fill="#454B69"/>
<path opacity="0.1" d="M265.685 323.708C266.568 323.008 267.33 322.168 267.94 321.22C268.552 320.268 268.795 319.125 268.623 318.006C268.866 319.421 268.773 320.874 268.354 322.248C267.934 323.621 267.199 324.877 266.207 325.915C264.648 327.513 261.722 329.08 259.442 328.533C259.765 326.705 264.238 324.939 265.685 323.708Z" fill="black"/>
<path opacity="0.1" d="M226.873 292.716C226.685 293.382 226.335 293.991 225.853 294.489C225.372 294.986 224.774 295.355 224.115 295.564C222.79 295.969 221.403 296.131 220.021 296.042H218.779C202.479 295.682 186.004 292.063 170.083 295.514C168.164 295.91 166.282 296.465 164.455 297.174C162.128 298.092 159.949 299.35 157.989 300.905V300.818C158.852 296.403 161.181 295.315 165.039 293.3C169.488 290.963 174.137 289.028 178.929 287.517C188.247 284.601 198.279 283.55 207.895 285.689C212.387 286.696 216.716 288.363 221.214 289.339C222.984 289.725 224.767 289.998 226.562 290.228C226.91 291.008 227.019 291.874 226.873 292.716Z" fill="black"/>
<path d="M226.873 291.826C226.687 292.494 226.337 293.105 225.855 293.604C225.374 294.102 224.775 294.472 224.115 294.681C222.79 295.087 221.403 295.247 220.021 295.153H218.779C202.479 294.793 186.004 291.173 170.083 294.625C168.165 295.021 166.283 295.575 164.455 296.279C162.018 297.252 159.745 298.594 157.715 300.258C157.239 298.948 156.765 297.636 156.293 296.322C155.721 294.755 157.535 294.407 157.883 293.002C158.113 292.05 157.721 290.968 157.523 289.955C157.472 289.706 157.438 289.455 157.423 289.202C157.311 286.957 158.113 285.664 159.951 284.451C165.406 280.845 172.059 278.37 178.283 276.511C181.592 275.463 185.01 274.8 188.471 274.533C193.366 274.247 198.254 275.155 203.019 276.305C208.877 277.754 214.673 279.669 219.866 282.735C222.413 284.221 224.897 286.087 226.27 288.736C226.818 289.667 227.031 290.757 226.873 291.826Z" fill="#A26565"/>
<path opacity="0.1" d="M174.4 254.479C172.537 260.393 167.449 265.722 161.256 265.977C160.805 266.03 160.349 265.947 159.945 265.74C159.169 265.255 159.15 264.117 159.467 263.253C159.784 262.389 160.337 261.611 160.424 260.704C160.442 260.518 160.43 260.331 160.386 260.15C163.672 255.511 166.859 250.823 168.12 245.332C168.375 244.386 168.453 243.402 168.35 242.428C168.182 241.309 167.617 240.295 167.306 239.213C166.76 237.298 167.014 235.271 167.17 233.287C167.817 224.552 166.359 215.79 162.921 207.736C162.082 205.796 161.126 203.831 160.834 201.76C161.264 200.935 161.996 200.309 162.877 200.013C164.915 199.329 166.25 200.392 166.549 202.326C167.046 205.615 166.76 208.973 167.412 212.275C168.015 215.363 168.929 218.382 170.139 221.286C171.239 223.91 172.574 226.447 173.419 229.164C174.055 231.404 174.51 233.691 174.779 236.004C175.63 242.173 176.283 248.565 174.4 254.479Z" fill="black"/>
<path opacity="0.1" d="M226.873 291.826C226.687 292.494 226.337 293.105 225.855 293.604C225.374 294.102 224.775 294.472 224.115 294.681C222.79 295.087 221.403 295.247 220.021 295.153H218.779C213.473 291.625 207.094 290.084 200.764 290.8C198.739 291.043 196.714 291.515 194.689 291.329C190.595 290.956 187.278 288.008 183.631 286.124C179.482 284.073 174.815 283.31 170.23 283.933C165.644 284.555 161.349 286.536 157.895 289.619L157.541 289.93C157.49 289.682 157.457 289.43 157.442 289.177C157.33 286.932 158.131 285.639 159.97 284.427C165.424 280.82 172.077 278.345 178.302 276.486C181.611 275.439 185.029 274.775 188.489 274.508C193.384 274.222 198.273 275.13 203.038 276.281C208.895 277.729 214.691 279.645 219.884 282.71C222.413 284.221 224.897 286.087 226.27 288.736C226.818 289.667 227.031 290.757 226.873 291.826Z" fill="black"/>
<path d="M240.806 223.711L240.719 223.935C239.328 227.547 236.768 230.601 235.129 234.12C233.06 238.579 232.551 243.578 232.091 248.478C231.693 252.676 231.302 256.898 231.619 261.108C232.414 271.48 237.477 281.317 238.831 291.491C239.165 293.84 239.25 296.218 239.086 298.586C238.974 300.084 238.7 301.695 237.706 302.802C236.713 303.909 234.781 304.344 233.712 303.281C234.191 302.366 234.675 301.459 235.16 300.544C232.321 298.337 228.047 299.923 224.73 298.542C223.27 297.92 222.102 296.801 220.878 295.8C218.085 293.527 214.867 291.835 211.411 290.825C207.956 289.815 204.334 289.506 200.758 289.917C198.733 290.166 196.708 290.639 194.682 290.452C190.589 290.073 187.272 287.132 183.625 285.247C179.476 283.197 174.81 282.434 170.225 283.056C165.64 283.677 161.344 285.655 157.889 288.736C157.019 289.544 155.852 290.489 154.783 289.979C154.37 289.726 154.037 289.362 153.82 288.929C149.751 281.97 152.746 272.997 157.094 266.219C161.442 259.441 167.201 253.192 168.99 245.338C169.248 244.393 169.326 243.408 169.22 242.434C169.052 241.315 168.487 240.301 168.176 239.219C167.629 237.304 167.884 235.277 168.039 233.293C168.691 224.557 167.238 215.793 163.803 207.736C162.809 205.416 161.629 203.066 161.629 200.547C161.629 196.58 164.468 193.291 166.816 190.101C169.518 186.432 171.785 182.371 175.208 179.355C178.451 176.489 183.147 174.735 187.16 176.19C193.979 174.533 200.997 173.849 208.007 174.157C210.43 174.269 212.933 174.524 215.058 175.699C217.331 176.943 218.965 179.156 221.201 180.481C222.835 181.457 224.717 181.917 226.494 182.601C231.4 184.519 235.449 188.145 237.899 192.812C240.384 197.631 241.005 203.172 241.552 208.569C242.073 213.649 242.57 218.929 240.806 223.711Z" fill="#049CE4"/>
<path opacity="0.1" d="M231.619 261.108C232.414 271.48 237.477 281.317 238.831 291.491C236.122 289.196 232.352 286.889 231.849 284.221C231.29 281.336 229.5 277.555 229.202 274.639C228.904 271.722 230.948 268.159 228.805 266.157C227.761 265.181 230.538 265.454 229.519 264.453C227.227 262.221 226.662 258.782 226.519 255.592C226.276 249.946 226.991 244.237 225.953 238.684C225.332 235.258 224.034 231.994 222.997 228.667C221.791 224.793 220.922 220.825 220.052 216.852C219.196 213.319 218.574 209.734 218.189 206.119C217.921 203.01 218.046 199.714 219.431 196.879C220.816 194.043 223.618 191.742 226.761 191.786C237.272 191.923 235.458 206.187 237.769 212.779C238.694 215.403 239.943 217.94 240.446 220.676C240.629 221.749 240.729 222.834 240.744 223.922C239.353 227.535 236.793 230.588 235.153 234.108C233.085 238.566 232.575 243.566 232.116 248.466C231.693 252.676 231.302 256.898 231.619 261.108Z" fill="black"/>
<path d="M238.452 212.617C239.378 215.241 240.626 217.778 241.129 220.514C241.968 225.097 240.67 229.966 242.08 234.406C242.447 235.354 242.754 236.324 242.999 237.31C243.241 238.722 242.962 240.164 242.962 241.601C242.962 243.914 243.689 246.153 244.335 248.373C246.519 255.917 247.965 263.656 248.652 271.48C248.755 273.582 249.086 275.668 249.64 277.698C249.901 278.386 250.124 279.088 250.311 279.8C250.477 280.75 250.517 281.718 250.429 282.679C250.261 285.726 249.919 288.786 250.261 291.82C250.602 294.855 251.708 297.933 253.988 299.966C251.95 300.408 249.795 300.849 247.807 300.196C245.012 299.282 243.335 296.465 241.912 293.903C240.111 290.632 233.265 287.685 232.557 284.01C232.004 281.131 230.215 277.35 229.917 274.427C229.619 271.505 231.656 267.954 229.513 265.952C228.476 264.976 231.252 265.243 230.227 264.248C227.941 262.016 227.376 258.577 227.233 255.381C226.991 249.741 227.699 244.032 226.668 238.479C226.047 235.053 224.748 231.788 223.711 228.455C222.506 224.587 221.636 220.62 220.767 216.64C219.908 213.108 219.286 209.523 218.903 205.908C218.636 202.798 218.754 199.497 220.145 196.661C221.537 193.825 224.338 191.531 227.475 191.568C237.943 191.755 236.141 206.026 238.452 212.617Z" fill="#049CE4"/>
<path opacity="0.1" d="M208.498 215.049C209.479 216.199 210.74 217.461 212.225 217.237C212.112 217.416 211.934 217.544 211.729 217.593C211.523 217.641 211.307 217.608 211.126 217.499C210.769 217.262 210.484 216.933 210.299 216.547L208.175 212.959C207.895 212.493 205.97 209.775 205.498 211.342C205.311 212.008 208.02 214.489 208.498 215.049Z" fill="black"/>
<path opacity="0.1" d="M207.355 223.997C207.294 222.824 206.8 221.716 205.97 220.888C205.223 220.21 204.352 219.684 203.404 219.339C201.075 218.382 198.317 217.611 195.788 217.735C196.708 219.078 199.658 219.88 201.137 220.639C203.232 221.721 205.305 222.84 207.355 223.997Z" fill="black"/>
<path opacity="0.1" d="M213.971 249.467C213.542 252.651 210.939 255.064 208.305 256.929C205.671 258.795 202.715 260.399 200.994 263.098C199.801 264.963 199.267 267.127 198.254 269.073C197.136 271.219 195.465 273.022 194.13 275.037C192.794 277.052 191.75 279.458 192.16 281.846C192.166 281.956 192.195 282.063 192.244 282.162C192.293 282.26 192.362 282.347 192.446 282.418C192.574 282.472 192.714 282.493 192.852 282.477C192.99 282.462 193.122 282.412 193.235 282.331C195.944 280.913 197.012 277.673 198.149 274.869C199.342 272.038 200.686 269.273 202.174 266.586C202.845 265.342 203.584 263.987 204.833 263.297C205.688 262.94 206.563 262.635 207.454 262.383C208.718 261.802 209.827 260.931 210.691 259.839C214.082 255.79 215.852 250.625 215.66 245.344C215.623 244.231 215.561 238.871 213.89 240.525C212.219 242.179 214.256 247.303 213.971 249.467Z" fill="black"/>
<path d="M218.064 127.358C223.407 129.69 228.003 134.82 227.836 140.634C227.693 146.74 222.587 152.492 224.345 158.344C225.363 161.739 228.432 164.015 230.861 166.595C240.111 176.395 240.092 193.502 230.811 203.284C227.258 207.015 222.692 209.67 218.934 213.233C205.684 225.732 205.119 247.353 212.213 264.136C206.777 265.313 201.237 265.938 195.676 266.002C193.074 266.002 189.887 265.56 188.943 263.129C188.073 260.884 189.564 257.849 187.849 256.189C187.042 255.412 185.83 255.306 184.743 255.126C177.749 253.994 172.009 248.404 169.387 241.819C166.766 235.233 166.903 227.821 168.406 220.894C169.474 215.888 171.145 210.379 168.667 205.901C165.561 200.268 156.628 197.892 156.765 191.45C156.877 186.171 163.095 183.603 166.623 179.679C173.133 172.453 170.033 161.241 170.021 151.503C170.021 142.935 173.015 134.092 179.389 128.384C188.868 119.821 207.125 122.601 218.064 127.358Z" fill="#A26565"/>
<g opacity="0.1">
<path opacity="0.1" d="M169.686 199.515C166.959 194.59 159.796 192.153 158.131 187.309C157.299 188.439 156.83 189.797 156.79 191.201C156.653 197.643 165.573 200.019 168.692 205.659C169.716 207.656 170.147 209.904 169.934 212.138C170.916 207.81 171.779 203.296 169.686 199.515Z" fill="black"/>
<path opacity="0.1" d="M225.059 150.372C226.177 147.107 227.798 143.811 227.879 140.422C227.89 140.055 227.88 139.688 227.848 139.322C226.6 143.065 224.686 146.697 225.059 150.372Z" fill="black"/>
<path opacity="0.1" d="M170.754 167.764C172.891 161.005 171.046 152.623 171.04 145.123C171.04 144.216 171.077 143.301 171.145 142.394C170.409 145.292 170.038 148.271 170.04 151.261C170.052 156.615 170.99 162.423 170.754 167.764Z" fill="black"/>
<path opacity="0.1" d="M231.849 196.922C228.295 200.653 223.73 203.308 219.971 206.871C213.262 213.196 209.815 221.858 208.951 231.042C210.554 224.202 213.79 217.903 218.977 213.009C222.705 209.465 227.301 206.822 230.855 203.06C235.081 198.449 237.536 192.486 237.781 186.233C236.708 190.229 234.671 193.899 231.849 196.922Z" fill="black"/>
<path opacity="0.1" d="M196.714 259.622C194.111 259.622 190.924 259.174 189.98 256.743C189.11 254.504 190.601 251.469 188.887 249.803C188.079 249.026 186.862 248.92 185.781 248.74C178.792 247.614 173.053 242.018 170.431 235.439C168.499 230.576 168.083 225.272 168.567 220.036C168.518 220.241 168.474 220.446 168.431 220.658C166.952 227.585 166.797 235.003 169.412 241.588C172.028 248.174 177.774 253.764 184.762 254.889C185.868 255.07 187.085 255.182 187.868 255.953C189.601 257.619 188.092 260.654 188.961 262.892C189.906 265.324 193.092 265.803 195.695 265.772C201.256 265.707 206.796 265.082 212.231 263.906C211.465 262.092 210.795 260.238 210.225 258.353C205.764 259.147 201.245 259.571 196.714 259.622Z" fill="black"/>
</g>
<path opacity="0.1" d="M217.058 232.503C218.592 233.66 220.257 229.251 219.307 228.151C219.052 228.437 216.822 232.342 217.058 232.503Z" fill="black"/>
<path opacity="0.1" d="M223.599 312.309C225.407 311.688 227.326 311.066 228.507 309.573C229.482 308.373 230.283 303.61 228.221 305.892C226.469 307.851 225.643 310.432 223.599 312.309Z" fill="black"/>
<path opacity="0.1" d="M242.005 307.316C241.788 308.784 241.384 310.307 240.347 311.364C240.154 311.563 239.725 311.688 239.669 311.42C240.828 310.803 241.905 310.042 242.875 309.157C244.974 307.074 245.26 301.944 242.061 300.582C242.03 302.833 242.347 305.028 242.005 307.316Z" fill="black"/>
<path d="M264.101 298.07C264.101 298.07 246.472 291.136 240.098 291.851C233.725 292.566 247.316 302.621 247.316 302.621L255.442 308.106C255.442 308.106 260.411 306.24 260.74 306.097C261.07 305.954 264.101 298.07 264.101 298.07Z" fill="#454B69"/>
<path d="M142.8 223.686C142.8 223.686 156.044 216 173.525 225.551C191.005 235.103 193.918 291.31 193.918 291.31C193.918 291.31 186.768 348.575 214.337 335.833C214.337 335.833 264.654 320.194 269.692 323.639C269.692 323.639 274.463 323.639 264.927 325.76C255.392 327.88 218.555 339.564 218.555 339.564C218.555 339.564 206.647 343.731 201.603 339.564C196.559 335.398 182.265 340.099 180.407 311.458C179.178 293.409 176.968 275.44 173.786 257.632L168.872 243.05L142.8 223.686Z" fill="#565661"/>
<path d="M141.21 312.247C141.21 312.247 147.037 254.181 137.483 233.231C129.171 214.974 161.312 223.512 169.698 225.999C170.996 226.388 172.128 227.197 172.916 228.3C177.885 235.295 195.714 263.334 190.458 300.849C190.458 300.849 188.34 334.26 201.584 339.558L160.778 326.4C157.467 325.331 154.106 324.442 150.714 323.67C146.391 322.688 139.346 319.896 141.21 312.247Z" fill="white"/>
<path d="M431.439 420.652H436.737L440.21 349.365L440.446 345.31L435.942 343.725L435.644 348.034L431.439 420.652Z" fill="#565661"/>
<path opacity="0.1" d="M435.644 348.034L440.21 349.365L440.446 345.31L435.942 343.725L435.644 348.034Z" fill="black"/>
<path d="M387.197 393.123C387.067 394.099 386.816 395.056 386.452 395.971C386.075 397.166 385.266 398.177 384.184 398.807C383.457 399.107 382.678 399.261 381.892 399.26C378.966 399.435 375.873 399.391 373.357 397.899C372.285 397.207 371.302 396.387 370.431 395.455C364.777 389.832 359.638 383.714 355.075 377.173C354.311 376.072 353.522 374.773 353.864 373.442C359.775 371.801 365.388 369.229 370.493 365.824C371.198 365.283 371.987 364.863 372.829 364.581C374.27 364.272 375.754 364.218 377.214 364.419C378.625 364.649 378.687 364.693 379.227 366.285C380.122 368.977 379.973 371.881 380.979 374.574C381.618 376.062 382.395 377.486 383.302 378.827C385.899 383.174 387.893 388.304 387.197 393.123Z" fill="#A26565"/>
<path opacity="0.1" d="M387.197 393.123C387.067 394.099 386.816 395.056 386.452 395.971C386.075 397.166 385.266 398.177 384.184 398.807C383.457 399.107 382.678 399.261 381.892 399.26C378.966 399.435 375.873 399.391 373.357 397.899C372.285 397.207 371.302 396.387 370.431 395.455C364.777 389.832 359.638 383.714 355.075 377.173C354.311 376.072 353.522 374.773 353.864 373.442C355.792 372.907 357.691 372.272 359.554 371.539L359.647 371.608C361.554 372.969 362.939 374.922 364.287 376.837L368.636 382.962C369.411 384.165 370.326 385.272 371.363 386.258C372.648 387.29 374.067 388.144 375.581 388.795C377.624 389.784 379.668 390.772 381.793 391.568C383.165 392.122 385.489 392.339 387.197 393.123Z" fill="black"/>
<path d="M391.21 326.717C390.782 327.751 390.262 328.743 389.657 329.684C383.883 339.389 379.429 349.822 376.413 360.707C375.556 360.514 375.071 361.683 375.077 362.572C375.084 363.462 375.077 364.581 374.258 364.904C374.015 364.997 373.742 364.997 373.506 365.103C372.984 365.339 372.835 366.005 372.76 366.577L372.027 371.962C371.773 373.827 371.549 375.848 372.462 377.496C373.092 378.476 373.909 379.321 374.866 379.984L386.992 389.56C387.489 389.952 388.104 390.368 388.7 390.151C390.061 389.653 388.856 387.216 389.943 386.227C390.663 385.549 391.806 386.059 392.806 385.978C394.111 385.879 395.099 384.679 395.428 383.416C395.659 382.131 395.682 380.816 395.496 379.524C395.414 378.934 395.483 378.333 395.695 377.776C396.066 377.187 396.575 376.698 397.18 376.352C399.284 374.814 400.979 372.783 402.117 370.437C403.255 368.091 403.802 365.502 403.708 362.896C403.61 362.102 403.639 361.298 403.795 360.514C404.048 359.796 404.429 359.13 404.92 358.549C409.324 352.586 412.995 346.112 416.642 339.652C418.741 335.921 420.878 332.134 421.611 327.93C421.675 327.774 421.701 327.605 421.688 327.436C421.675 327.268 421.623 327.105 421.536 326.96C421.45 326.815 421.33 326.693 421.188 326.602C421.046 326.511 420.884 326.455 420.717 326.438C418.898 325.869 417.042 325.425 415.163 325.107C409.454 323.95 403.944 322.166 398.391 320.449C392.837 318.733 392.881 322.228 391.21 326.717Z" fill="#454B69"/>
<path d="M364.952 435.731L373.699 436.788L413.958 345.31L424.817 344.514L443.894 350.086L447.596 459H456.336L452.895 346.106L473.823 346.641L511.169 439.704H519.114L479.836 330.94L478.326 326.749L419.785 324.74L405.193 332.93L405.007 333.402L364.952 435.731Z" fill="#565661"/>
<path opacity="0.1" d="M405.007 333.402C417.586 337.195 430.643 341.337 430.643 341.337C430.643 341.337 442.552 345.497 447.596 341.337C448.232 340.84 448.943 340.447 449.702 340.174C449.047 340.642 448.34 341.032 447.596 341.337L479.836 330.933L478.345 326.749L419.804 324.74L405.212 332.93L405.007 333.402Z" fill="black"/>
<path d="M464.548 315.35L440.713 310.046C440.713 310.046 383.762 320.655 379.525 324.895C379.525 324.895 425.084 334.173 430.115 337.332C435.147 340.491 465.082 343.986 464.548 315.35Z" fill="white"/>
<path d="M376.102 400.591C374.668 403.327 371.133 404.098 368.027 404.142C363.715 404.195 359.431 403.429 355.404 401.885C353.106 401.002 350.901 399.864 348.528 399.217C344.993 398.247 341.073 398.328 337.967 396.381C336.32 395.282 334.959 393.805 333.998 392.072C333.818 391.767 333.644 391.45 333.482 391.127C331.998 388.235 331.308 384.871 332.134 381.75C332.961 378.628 335.961 375.189 339.44 375.239C343.571 375.301 348.497 377.26 352.485 378.274C357.454 379.517 362.424 380.954 366.816 383.584C370.493 385.798 373.742 388.975 375.475 392.856C375.808 393.604 376.082 394.378 376.295 395.169C376.835 396.96 376.96 398.956 376.102 400.591Z" fill="#A26565"/>
<path opacity="0.1" d="M376.102 400.591C374.668 403.327 371.133 404.098 368.027 404.142C363.715 404.195 359.431 403.429 355.404 401.885C353.106 401.002 350.901 399.864 348.528 399.217C344.993 398.247 341.073 398.328 337.967 396.381C336.32 395.282 334.959 393.805 333.998 392.072C333.818 391.767 333.644 391.45 333.482 391.127C334.103 391.177 334.675 391.239 334.986 391.27C338.8 391.637 342.44 393.03 346.08 394.081C351.134 395.542 356.352 396.357 361.61 396.506C365.337 396.611 369.226 396.338 372.481 394.516C373.453 393.902 374.461 393.348 375.5 392.856C375.833 393.604 376.107 394.377 376.32 395.169C376.836 396.96 376.96 398.956 376.102 400.591Z" fill="black"/>
<path d="M402.795 282.356C394.72 281.031 386.495 280.708 378.308 280.385L368.294 279.987C367.582 279.904 366.86 279.991 366.188 280.242C365.609 280.614 365.059 281.03 364.542 281.485C363.536 282.169 362.25 282.244 361.038 282.312C352.446 282.786 343.899 283.896 335.47 285.633C331.122 286.522 326.606 287.685 323.338 290.688C319.884 293.866 318.369 298.71 318.251 303.399C318.133 308.087 319.363 312.695 320.661 317.197C322.314 322.617 323.227 328.235 323.375 333.9C323.317 335.471 323.377 337.045 323.556 338.607C323.845 340.098 324.284 341.557 324.866 342.96L329.438 355.179C329.842 356.248 330.24 357.312 330.681 358.356C331.122 359.401 331.544 360.222 331.923 361.204C332.482 362.547 332.923 363.94 333.364 365.327L336.408 374.897L336.806 376.141C337.905 379.586 339.03 383.093 341.104 386.053C343.179 389.013 346.391 391.401 350 391.581C351.164 391.537 352.33 391.568 353.491 391.674C354.48 391.916 355.44 392.264 356.355 392.713C359.065 393.84 361.974 394.408 364.909 394.385C367.611 394.385 370.611 393.633 372.077 391.357C372.885 390.113 373.096 388.584 373.32 387.116C373.711 384.169 374.09 381.091 373.09 378.292C372.468 376.62 371.425 375.183 370.704 373.535C369.698 371.29 369.369 368.809 368.716 366.44C367.305 361.341 364.433 356.767 360.455 353.282C359.042 347.682 358.004 341.995 357.349 336.256C357.258 334.986 357.005 333.732 356.597 332.525C355.87 330.66 354.398 329.149 353.783 327.246C353.205 325.48 353.379 323.44 352.329 321.917C361.07 324.323 369.723 323.782 378.798 323.639C381.705 323.649 384.609 323.483 387.495 323.142C388.841 322.895 390.203 322.749 391.57 322.707C394.378 322.707 397.012 323.95 399.59 325.045C406.876 328.154 414.554 330.598 422.468 330.933C430.637 331.275 438.713 329.354 446.695 327.451C450.205 326.612 453.851 325.704 456.634 323.397C459.417 321.09 460.983 316.93 459.268 313.765C457.964 311.383 455.261 310.214 452.739 309.219C445.757 306.458 438.738 303.766 432.01 300.426C421.735 295.414 414.051 284.221 402.795 282.356Z" fill="#454B69"/>
<path d="M388.396 254.224C387.421 256.338 385.781 258.067 384.569 260.057C382.543 263.332 381.874 267.27 382.706 271.032C383.143 272.892 384 274.626 385.211 276.102C386.423 277.578 387.956 278.756 389.694 279.545C391.245 280.164 392.877 280.557 394.54 280.714C396.726 280.982 399.056 281.038 400.988 279.98C402.433 279.112 403.62 277.871 404.423 276.386C406.094 273.588 407.044 270.435 407.914 267.295C409.523 261.5 410.896 255.555 410.697 249.542C410.629 247.471 410.219 245.139 408.504 243.945C407.619 243.434 406.638 243.112 405.622 243L397.428 241.532C395.844 241.246 393.08 240.084 391.707 241.228C390.334 242.372 390.228 245.755 389.992 247.34C389.62 249.685 389.39 252.066 388.396 254.224Z" fill="#A1616A"/>
<path d="M487.992 230.172L485.849 248.155C485.405 251.362 485.15 254.593 485.085 257.831C485.085 259.634 485.141 261.636 483.948 262.986C483.365 263.6 482.626 264.044 481.811 264.273C479.208 265.081 476.37 264.36 473.885 263.247C472.431 262.625 470.947 261.723 470.288 260.274C469.905 259.27 469.746 258.194 469.822 257.122C469.822 246.395 470.835 235.208 476.432 226.067C476.909 225.171 477.582 224.393 478.401 223.792C479.954 222.797 481.985 223.076 483.743 223.617C484.824 223.947 487.744 224.314 488.433 225.278C489.123 226.242 488.141 228.934 487.992 230.172Z" fill="#A1616A"/>
<path d="M431.134 165.14C443.485 165.14 453.497 155.118 453.497 142.754C453.497 130.391 443.485 120.368 431.134 120.368C418.783 120.368 408.771 130.391 408.771 142.754C408.771 155.118 418.783 165.14 431.134 165.14Z" fill="#A1616A"/>
<path d="M425.152 176.116C425.071 177.857 424.598 179.558 423.767 181.09C435.184 179.349 446.573 177.409 457.932 175.27C454.164 173.331 451.314 169.977 450.006 165.942C449.388 163.779 449.05 161.545 449 159.295C448.819 155.727 448.888 152.151 449.205 148.593C445.229 149.01 441.465 150.502 437.675 151.783C433.866 153.072 429.99 154.158 426.065 155.035C424.171 155.458 422.264 155.819 420.35 156.155C418.114 156.553 417.039 156.547 418.592 158.512C422.76 163.76 425.736 169.095 425.152 176.116Z" fill="#A1616A"/>
<path d="M432.023 173.125C429.072 173.566 425.978 174.064 423.624 175.892C422.728 176.662 421.875 177.482 421.071 178.348C416.393 182.894 409.79 184.722 404.112 187.93C403.186 188.389 402.365 189.035 401.702 189.827C401.081 190.691 400.764 191.792 400.112 192.65C399.354 193.645 398.155 194.267 397.565 195.368C396.975 196.468 397.105 197.637 397.043 198.806C396.9 201.375 395.931 203.812 395.179 206.268C391.732 218.027 393.62 231.142 388.402 242.248C388.642 242.887 389.009 243.472 389.481 243.966C389.953 244.459 390.52 244.852 391.148 245.12C392.461 245.594 393.831 245.889 395.223 245.997L406.783 247.434C408.436 247.639 410.188 247.832 411.697 247.141C410.316 250.952 409.34 254.898 408.784 258.913C408.503 261.367 408.067 263.801 407.479 266.201C405.889 271.673 401.888 276.231 397.149 279.346C396.552 279.659 396.048 280.125 395.689 280.696C395.068 281.939 395.987 283.332 396.639 284.551C398.534 288.083 398.273 292.324 398.248 296.328C398.223 300.333 398.627 304.729 401.422 307.602C403.075 309.3 405.336 310.22 407.535 311.097L425.618 318.329C428.602 319.601 431.68 320.64 434.824 321.438C439.589 322.526 444.54 322.483 449.428 322.271C452.659 322.135 455.885 321.927 459.107 321.649C460.388 321.645 461.648 321.313 462.765 320.686C463.728 319.926 464.468 318.92 464.909 317.775C467.424 312.297 468.269 305.905 472.17 301.316C474.848 298.163 479.004 295.644 479.308 291.522C479.451 289.47 478.538 287.474 478.525 285.415C478.525 282.884 479.848 280.478 479.768 277.953C479.6 273.843 475.73 270.709 475.115 266.642C473.549 256.332 478.78 246.035 481.991 236.116C482.569 234.344 483.315 232.385 485.017 231.627C486.719 230.868 489.117 231.266 489.725 229.587C491.26 225.371 491.626 220.427 491.427 215.944C491.316 213.351 490.396 210.814 490.502 208.215C490.576 206.386 491.16 204.608 491.316 202.786C491.552 200.031 490.825 197.295 490.073 194.634C489.856 193.684 489.531 192.761 489.104 191.885C488.645 191.091 488.104 190.346 487.489 189.665L484.464 186.065C483.048 184.38 481.55 182.632 479.494 181.781C478.83 180.133 476.705 178.995 475.183 178.087C473.649 177.215 472.064 176.437 470.437 175.755L453.33 168.193C452.69 167.871 452.005 167.649 451.298 167.534C450.257 167.499 449.222 167.712 448.279 168.156C443.061 170.227 437.613 172.291 432.023 173.125Z" fill="#049CE4"/>
<path d="M413.902 146.647C413.244 144.328 411.56 142.325 411.306 139.925C411.076 137.792 412.014 135.728 412.548 133.651C413.082 131.574 413.064 129.037 411.417 127.656C411.144 127.42 410.796 127.208 410.697 126.86C410.498 126.238 411.125 125.672 411.318 125.044C411.672 123.801 410.138 122.427 410.697 121.233C411.014 120.58 411.809 120.35 412.505 120.144C415.163 119.355 417.859 117.601 418.437 114.884C420.518 115.754 422.736 114.119 424.332 112.533C425.929 110.947 427.892 109.138 430.091 109.617L429.6 110.618C432.991 109.386 436.699 109.344 440.117 110.5H439.073C442.071 110.551 444.978 111.535 447.391 113.317C447.124 113.317 447.099 113.715 447.204 113.939C448.074 115.972 450.31 117.048 452.466 117.551C453.764 117.862 455.174 118.086 456.125 119.019C457.075 119.952 457.094 121.898 455.839 122.346C458.398 123.343 460.821 124.659 463.051 126.263C463.672 126.717 464.374 127.333 464.294 128.129C464.205 128.528 464.076 128.918 463.908 129.292C463.784 129.955 463.829 130.64 464.039 131.281L464.728 134.129C465.486 137.295 466.083 141.106 463.778 143.401C464.641 145.015 464.961 146.863 464.691 148.673C464.422 150.484 463.576 152.158 462.281 153.45C462.464 154.005 462.527 154.593 462.466 155.175C462.405 155.757 462.222 156.319 461.929 156.825C461.636 157.331 461.238 157.769 460.764 158.11C460.289 158.451 459.748 158.687 459.175 158.804C459.939 159.998 459.237 161.702 458.032 162.448C456.827 163.194 455.311 163.2 453.907 163.07C452.503 162.939 451.081 162.622 449.677 162.833C447.633 163.15 445.633 164.543 443.664 163.921C442.93 163.607 442.225 163.229 441.558 162.79C440.179 162.05 438.576 161.882 437.048 161.546C434.443 160.986 431.969 159.93 429.761 158.437C428.298 157.556 427.131 156.257 426.413 154.706C425.046 151.249 427.345 146.715 424.928 143.898C423.512 142.257 420.704 142.232 419.12 143.637C418.331 144.34 418.226 145.82 417.406 146.348C416.262 146.638 415.078 146.739 413.902 146.647Z" fill="#464353"/>
<path opacity="0.1" d="M383.513 324.951C382.63 324.252 381.868 323.412 381.258 322.464C380.646 321.512 380.403 320.368 380.575 319.249C380.333 320.665 380.425 322.118 380.845 323.491C381.265 324.865 382 326.121 382.992 327.159C384.551 328.757 387.477 330.324 389.756 329.777C389.433 327.949 384.961 326.183 383.513 324.951Z" fill="black"/>
<path d="M506.398 224.93C506.398 224.93 493.154 217.244 475.674 226.795C458.193 236.346 455.28 292.554 455.28 292.554C455.28 292.554 462.43 349.819 434.861 337.077C434.861 337.077 384.545 321.438 379.507 324.883C379.507 324.883 374.736 324.883 384.271 327.003C393.807 329.124 430.643 340.808 430.643 340.808C430.643 340.808 442.552 344.974 447.596 340.808C452.64 336.642 466.934 341.343 468.791 312.701C470.02 294.652 472.231 276.684 475.413 258.875L480.327 244.293L506.398 224.93Z" fill="#565661"/>
<path d="M507.988 313.491C507.988 313.491 502.162 255.424 511.716 234.475C520.027 216.218 487.887 224.755 479.5 227.243C478.203 227.631 477.071 228.441 476.283 229.544C471.313 236.539 453.485 264.578 458.74 302.093C458.74 302.093 460.858 335.504 447.615 340.802L488.421 327.644C491.732 326.574 495.092 325.685 498.484 324.914C502.808 323.932 509.852 321.14 507.988 313.491Z" fill="white"/>
<path opacity="0.1" d="M614.964 426.403C648.394 426.403 675.494 422.046 675.494 416.672C675.494 411.297 648.394 406.94 614.964 406.94C581.535 406.94 554.435 411.297 554.435 416.672C554.435 422.046 581.535 426.403 614.964 426.403Z" fill="#049CE4"/>
<path d="M616.909 230.24H613.014V318.024H616.909V230.24Z" fill="#535461"/>
<path d="M641.39 317.757L641.148 321.712L640.8 327.308L640.657 329.634L640.315 335.23L640.166 337.556L639.818 343.152L635.892 406.623C635.713 409.347 634.505 411.901 632.514 413.767C630.523 415.633 627.898 416.671 625.171 416.672H604.752C602.02 416.671 599.391 415.627 597.401 413.753C595.411 411.879 594.21 409.315 594.043 406.586L590.104 343.109L589.763 337.512L589.62 335.187L589.266 329.59L589.123 327.265L588.781 321.668L588.533 317.713C588.49 316.955 588.601 316.196 588.86 315.483C589.12 314.769 589.521 314.116 590.041 313.563C590.56 313.01 591.187 312.568 591.882 312.265C592.578 311.962 593.328 311.803 594.086 311.8H635.843C636.605 311.804 637.358 311.964 638.055 312.27C638.753 312.576 639.381 313.022 639.901 313.58C640.42 314.138 640.82 314.796 641.076 315.514C641.332 316.233 641.439 316.996 641.39 317.757Z" fill="#565661"/>
<path d="M641.148 321.712L640.8 327.289H589.129L588.781 321.712H641.148Z" fill="#9D9CB5"/>
<path d="M640.657 329.621L640.315 335.205H589.62L589.272 329.621H640.657Z" fill="#9D9CB5"/>
<path d="M640.166 337.531L639.818 343.109H590.11L589.763 337.531H640.166Z" fill="#9D9CB5"/>
<path d="M582.83 263.141C605.516 279.57 614.964 305.264 614.964 305.264C614.964 305.264 587.632 304.325 564.94 287.896C542.247 271.467 532.811 245.78 532.811 245.78C532.811 245.78 560.15 246.719 582.83 263.141Z" fill="#049CE4"/>
<path d="M532.811 245.78C532.811 245.78 561.181 261.543 570.288 274.595C579.395 287.648 614.964 305.264 614.964 305.264" stroke="#535461" stroke-width="2" stroke-miterlimit="10"/>
<path d="M597.472 230.047C609.821 238.983 614.964 252.974 614.964 252.974C614.964 252.974 600.056 252.458 587.737 243.522C575.419 234.587 570.282 220.595 570.282 220.595C570.282 220.595 585.128 221.105 597.472 230.047Z" fill="#049CE4"/>
<path d="M570.282 220.595C570.282 220.595 585.725 229.177 590.676 236.278C595.627 243.379 614.995 252.974 614.995 252.974" stroke="#535461" stroke-width="2" stroke-miterlimit="10"/>
<path d="M632.905 252.259C618.723 267.861 615.722 288.251 615.722 288.251C615.722 288.251 635.719 283.338 649.888 267.73C664.057 252.122 667.07 231.739 667.07 231.739C667.07 231.739 647.086 236.657 632.905 252.259Z" fill="#049CE4"/>
<path d="M667.083 231.745C667.083 231.745 648.608 247.738 643.912 258.757C639.216 269.776 615.722 288.251 615.722 288.251" stroke="#535461" stroke-width="2" stroke-miterlimit="10"/>
<path d="M345.993 214.7V216.118H303.994V214.968C305.146 214.535 306.236 213.954 307.237 213.239C309.02 211.961 310.474 210.275 311.476 208.322C312.479 206.369 313.002 204.205 313.002 202.009C313.002 200.861 312.858 199.719 312.573 198.607C312.065 196.607 311.116 194.747 309.796 193.162C308.476 191.577 306.818 190.308 304.945 189.448H345.707C343.834 190.308 342.176 191.577 340.856 193.162C339.536 194.747 338.587 196.607 338.079 198.607C337.796 199.719 337.654 200.862 337.657 202.009C337.655 204.204 338.177 206.368 339.179 208.321C340.18 210.275 341.632 211.96 343.415 213.239C344.221 213.815 345.085 214.305 345.993 214.7Z" fill="#DFE6F5"/>
<path opacity="0.1" d="M345.707 189.448C343.834 190.308 342.176 191.577 340.856 193.162C339.536 194.747 338.587 196.607 338.079 198.607H312.573C312.065 196.607 311.116 194.747 309.796 193.162C308.476 191.577 306.818 190.308 304.945 189.448H345.707Z" fill="black"/>
<path d="M255.908 182.203V190.188C255.908 194.59 259.125 198.166 263.101 198.166H386.663C390.638 198.166 393.862 194.59 393.862 190.188V182.203H255.908Z" fill="#DFE6F5"/>
<path opacity="0.1" d="M345.993 214.7V216.118H303.994V214.968C305.146 214.535 306.236 213.954 307.237 213.239H343.415C344.221 213.815 345.085 214.305 345.993 214.7Z" fill="black"/>
<path d="M357.765 213.681H292.223C291.059 213.681 290.117 214.623 290.117 215.785C290.117 216.948 291.059 217.89 292.223 217.89H357.765C358.928 217.89 359.871 216.948 359.871 215.785C359.871 214.623 358.928 213.681 357.765 213.681Z" fill="#DFE6F5"/>
<path d="M393.862 94.755C393.862 93.8088 393.676 92.8719 393.314 91.9979C392.952 91.1238 392.422 90.3297 391.753 89.661C391.085 88.9923 390.291 88.462 389.418 88.1005C388.544 87.739 387.608 87.5533 386.663 87.5541H263.101C262.156 87.5533 261.22 87.739 260.347 88.1006C259.474 88.4622 258.681 88.9926 258.013 89.6614C257.344 90.3302 256.815 91.1243 256.453 91.9984C256.092 92.8724 255.907 93.8091 255.908 94.755V183.758H393.862V94.755Z" fill="#474157"/>
<path d="M390.098 97.9698V174.455C390.099 174.921 390.008 175.383 389.83 175.814C389.653 176.244 389.392 176.636 389.063 176.966C388.734 177.295 388.344 177.557 387.914 177.736C387.484 177.914 387.023 178.006 386.557 178.006H263.213C262.747 178.006 262.286 177.914 261.856 177.736C261.426 177.557 261.036 177.295 260.707 176.966C260.378 176.636 260.117 176.244 259.94 175.814C259.762 175.383 259.671 174.921 259.672 174.455V97.9698C259.669 97.3476 259.832 96.7357 260.144 96.1976C260.455 95.6585 260.902 95.2108 261.441 94.8997C261.98 94.5886 262.591 94.425 263.213 94.4254H386.557C387.496 94.4254 388.397 94.7988 389.061 95.4635C389.725 96.1282 390.098 97.0298 390.098 97.9698Z" fill="#4C4C78"/>
<path d="M324.885 92.6469C325.801 92.6469 326.544 91.9036 326.544 90.9866C326.544 90.0697 325.801 89.3263 324.885 89.3263C323.969 89.3263 323.226 90.0697 323.226 90.9866C323.226 91.9036 323.969 92.6469 324.885 92.6469Z" fill="white"/>
<path d="M324.885 194.615C327.146 194.615 328.979 192.78 328.979 190.517C328.979 188.254 327.146 186.419 324.885 186.419C322.624 186.419 320.791 188.254 320.791 190.517C320.791 192.78 322.624 194.615 324.885 194.615Z" fill="white"/>
<path d="M390.098 97.9698H259.684C259.684 97.0298 260.057 96.1282 260.721 95.4635C261.385 94.7988 262.286 94.4254 263.225 94.4254H386.557C387.496 94.4254 388.397 94.7988 389.061 95.4635C389.725 96.1282 390.098 97.0298 390.098 97.9698Z" fill="#C8CAD7"/>
<path d="M263.213 97.0868C263.703 97.0868 264.101 96.6887 264.101 96.1976C264.101 95.7065 263.703 95.3084 263.213 95.3084C262.722 95.3084 262.324 95.7065 262.324 96.1976C262.324 96.6887 262.722 97.0868 263.213 97.0868Z" fill="#EDEDF4"/>
<path d="M265.871 97.0868C266.362 97.0868 266.76 96.6887 266.76 96.1976C266.76 95.7065 266.362 95.3084 265.871 95.3084C265.381 95.3084 264.983 95.7065 264.983 96.1976C264.983 96.6887 265.381 97.0868 265.871 97.0868Z" fill="#EDEDF4"/>
<path d="M268.53 97.0868C269.021 97.0868 269.418 96.6887 269.418 96.1976C269.418 95.7065 269.021 95.3084 268.53 95.3084C268.04 95.3084 267.642 95.7065 267.642 96.1976C267.642 96.6887 268.04 97.0868 268.53 97.0868Z" fill="#EDEDF4"/>
</g>
<defs>
<linearGradient id="paint0_linear" x1="240.061" y1="290.856" x2="241.502" y2="290.856" gradientUnits="userSpaceOnUse">
<stop stop-color="#808080" stop-opacity="0.25"/>
<stop offset="0.54" stop-color="#808080" stop-opacity="0.12"/>
<stop offset="1" stop-color="#808080" stop-opacity="0.1"/>
</linearGradient>
<clipPath id="clip0">
<rect width="702" height="459" fill="white"/>
</clipPath>
</defs>
</svg>
